<svg width="33" height="35" viewBox="0 0 33 35" fill="none" xmlns="http://www.w3.org/2000/svg">
<path fill-rule="evenodd" clip-rule="evenodd" d="M23.75 12.5C23.75 7.42602 20.952 3.90436 17.3317 2.84713C17.2006 2.50794 16.9935 2.19262 16.7119 1.92804C15.7497 1.02399 14.2503 1.02399 13.2881 1.92804C13.0072 2.19204 12.8003 2.50656 12.6691 2.84489C9.0442 3.89751 6.25 7.41147 6.25 12.5C6.25 15.7924 5.58623 17.6372 4.35745 18.9741C4.152 19.1977 3.59537 19.7097 3.21832 20.0566C3.03993 20.2207 2.90174 20.3478 2.85996 20.3899L2.5 20.7549V25.0176H10.11C10.3673 26.3452 11.0876 27.2333 12.3902 28.0283C13.9927 29.0061 16.0073 29.0061 17.6098 28.0283C18.7594 27.3267 19.5302 26.2486 19.8429 25.0176H27.5V20.7549L27.14 20.3899C27.1021 20.3515 26.9696 20.2292 26.7963 20.0693L26.7963 20.0693L26.7962 20.0693C26.4203 19.7225 25.8528 19.199 25.6442 18.9712C24.4146 17.628 23.75 15.7808 23.75 12.5ZM17.1709 25.0176H12.7233C12.8999 25.3461 13.2009 25.5942 13.6925 25.8942C14.4953 26.3841 15.5047 26.3841 16.3075 25.8942C16.6792 25.6674 16.9697 25.3672 17.1709 25.0176ZM23.8002 20.6592C24.0633 20.9466 24.627 21.4718 25 21.8149V22.5176H5V21.8154C5.37009 21.4764 5.93554 20.9516 6.19811 20.6659C7.86778 18.8492 8.75 16.3972 8.75 12.5C8.75 7.77485 11.666 5.01546 15 5.01546C18.3246 5.01546 21.25 7.7891 21.25 12.5C21.25 16.3847 22.1325 18.8375 23.8002 20.6592Z" fill="#F7F7F7"/>
<path d="M32.5 27.5C32.5 31.3361 29.173 34.5 25 34.5C20.827 34.5 17.5 31.3361 17.5 27.5C17.5 23.6639 20.827 20.5 25 20.5C29.173 20.5 32.5 23.6639 32.5 27.5Z" fill="#FF0000" stroke="#F7F7F7"/>
</svg>
