<svg width="34" height="32" viewBox="0 0 34 32" fill="none" xmlns="http://www.w3.org/2000/svg">
<path fill-rule="evenodd" clip-rule="evenodd" d="M22.6666 21.22V24C22.6666 26.9455 20.1296 29.3333 17 29.3333C13.8704 29.3333 11.3333 26.9455 11.3333 24V21.22C11.3333 20.9596 11.2353 20.6755 11.0039 20.3015C10.8552 20.0613 10.6606 19.7973 10.3672 19.4319L10.2684 19.3107L10.268 19.3101C10.0718 19.0694 9.6443 18.5451 9.48641 18.3443C7.88577 16.3096 7.08331 14.4931 7.08331 12C7.08331 6.8453 11.5232 2.66663 17 2.66663C22.4768 2.66663 26.9166 6.8453 26.9166 12C26.9166 14.5476 26.1032 16.4331 24.5162 18.4639C24.348 18.6792 23.9235 19.1984 23.6722 19.5058L23.6715 19.5067C23.5736 19.6264 23.5021 19.7139 23.4825 19.7384C23.1618 20.1399 22.9626 20.4247 22.8331 20.6718C22.7158 20.8955 22.6666 21.0684 22.6666 21.22ZM19.8952 20.5857C19.9675 20.2169 20.1018 19.8551 20.2921 19.4921C20.5157 19.0654 20.8001 18.659 21.2176 18.1362C21.2463 18.1003 21.3387 17.9872 21.458 17.8412C21.7131 17.5291 22.0914 17.0661 22.2337 16.884C23.4926 15.273 24.0833 13.9038 24.0833 12C24.0833 8.31806 20.912 5.33329 17 5.33329C13.088 5.33329 9.91665 8.31806 9.91665 12C9.91665 13.838 10.4927 15.1421 11.7636 16.7576C11.9 16.931 12.2853 17.4039 12.4934 17.6592L12.4942 17.6602C12.5645 17.7464 12.6144 17.8076 12.6274 17.8239C12.9834 18.2671 13.2352 18.6088 13.4522 18.9594C13.7901 19.5054 14.0145 20.0377 14.1117 20.5896C14.9945 21.0883 15.9488 21.3333 17 21.3333C18.0539 21.3333 19.0105 21.0871 19.8952 20.5857ZM19.8333 24V23.5499C18.9373 23.8492 17.9907 24 17 24C16.0092 24 15.0626 23.8492 14.1666 23.5499V24C14.1666 25.4727 15.4352 26.6666 17 26.6666C18.5648 26.6666 19.8333 25.4727 19.8333 24Z" fill="#F7F7F7"/>
</svg>
